<svg xmlns="http://www.w3.org/2000/svg" viewBox="0 0 120 32" fill="none">
  <path d="M16 4C9.373 4 4 9.373 4 16s5.373 12 12 12 12-5.373 12-12S22.627 4 16 4zm0 2c5.523 0 10 4.477 10 10s-4.477 10-10 10S6 21.523 6 16 10.477 6 16 6zm0 3a1.5 1.5 0 00-1.5 1.5v5.379l-2.56 2.56a1.5 1.5 0 102.12 2.122l3-3A1.5 1.5 0 0017.5 16v-5.5A1.5 1.5 0 0016 9z" fill="#111827"/>
  <text x="38" y="21" font-family="'Inter','Helvetica Neue',Arial,sans-serif" font-size="14" font-weight="700" fill="#111827">Cal.com</text>
</svg>
