<?xml version="1.0" encoding="UTF-8" standalone="no"?>
<!-- Created with Inkscape (http://www.inkscape.org/) -->

<svg
   version="1.1"
   id="svg1"
   width="633.06213"
   height="317.02191"
   viewBox="0 0 633.06213 317.02191"
   xmlns="http://www.w3.org/2000/svg"
   xmlns:svg="http://www.w3.org/2000/svg">
  <defs
     id="defs1">
    <clipPath
       clipPathUnits="userSpaceOnUse"
       id="clipPath8">
      <path
         d="M 0,4482.0001 H 6120.0002 V 0 H 0 Z"
         id="path8" />
    </clipPath>
  </defs>
  <g
     id="g1"
     transform="translate(-182.93789,-598.73541)">
    <g
       id="group-R5">
      <path
         id="path2"
         d="m 3092.89,1079.22 144.9,209.4 h -121.1 c -6.1,0 -11,4.9 -11,11 v 19.9 c 0,6.1 4.9,11 11,11 h 179.2 c 6.1,0 11,-4.9 11,-11 v -6.5 c 0,-2.2 -0.7,-4.3 -1.9,-6.2 l -141.4,-209.5 h 128.2 c 6.1,0 11,-4.9 11,-11 v -19.9 c 0,-6.1 -4.9,-11 -11,-11 h -189.9 c -6.1,0 -11,4.9 -11,11 v 6.4 c 0.1,2.4 0.7,4.6 2,6.4"
         style="fill:#100f0d;fill-opacity:1;fill-rule:nonzero;stroke:none"
         transform="matrix(0.13333333,0,0,-0.13333333,0,1056)" />
      <path
         id="path3"
         d="m 3897.39,1193.22 c 0,53.9 -28.2,99 -86.6,99 -58.8,0 -84,-45.8 -84,-100.7 0,-51.7 30.8,-97.5 87.3,-97.5 58.1,0.1 83.3,48.2 83.3,99.2 z m -226.2,1 c 0,81.1 59.9,140.3 142.6,140.3 82.6,0 138.8,-59.2 138.8,-140.9 0,-83 -57.9,-141.8 -141.2,-141.8 -83.3,0 -140.2,58.8 -140.2,142.4"
         style="fill:#100f0d;fill-opacity:1;fill-rule:nonzero;stroke:none"
         transform="matrix(0.13333333,0,0,-0.13333333,0,1056)" />
      <path
         id="path4"
         d="m 4352.19,1330.52 h 31.4 c 6.1,0 11,-4.9 11,-11 v -105.5 h 127 v 105.5 c 0,6.1 4.9,11 11,11 h 31.2 c 6.1,0 11,-4.9 11,-11 v -253 c 0,-6.1 -4.9,-11 -11,-11 h -31.2 c -6.1,0 -11,4.9 -11,11 v 105.7 h -127 v -105.7 c 0,-6.1 -4.9,-11 -11,-11 h -31.4 c -6.1,0 -11,4.9 -11,11 v 253 c 0,6.1 4.9,11 11,11"
         style="fill:#100f0d;fill-opacity:1;fill-rule:nonzero;stroke:none"
         transform="matrix(0.13333333,0,0,-0.13333333,0,1056)" />
      <path
         id="path5"
         d="m 5189.29,1193.22 c 0,53.9 -28.2,99 -86.6,99 -58.8,0 -84,-45.8 -84,-100.7 0,-51.7 30.8,-97.5 87.3,-97.5 58.1,0.1 83.3,48.2 83.3,99.2 z m -226.1,1 c 0,81.1 59.9,140.3 142.6,140.3 82.7,0 138.8,-59.2 138.8,-140.9 0,-83 -57.9,-141.8 -141.2,-141.8 -83.3,0 -140.2,58.8 -140.2,142.4"
         style="fill:#100f0d;fill-opacity:1;fill-rule:nonzero;stroke:none"
         transform="matrix(0.13333333,0,0,-0.13333333,0,1056)" />
      <path
         id="path6"
         d="m 3383.81,3265.26 c -52,0 -102,-30 -125,-81 l -402,-902.01 c -31,-69 0,-150 69,-181 l 902,-402 v 0 c 33,-15 70,-16 105,-3 34,13 61,39 76,72 l 402,902 c 31,69 0,150 -69,181 l -902,402 c -19,9.01 -38,12.01 -56,12.01 z m 499,-1741 c -42,0 -83,8.99 -122,26 l -902,402 c -73,33 -130,92 -158,167 -29,75 -27,157 6,230 l 402,902 c 68,151 246,220 397,152 l 902,-402 c 151,-68 220,-246 152,-397 l -402,-902 c -33,-73 -92,-130 -167,-158 -35,-13 -72,-20 -108,-20"
         style="fill:#2ca041;fill-opacity:1;fill-rule:nonzero;stroke:none"
         transform="matrix(0.13333333,0,0,-0.13333333,0,1056)" />
      <path
         id="path7"
         d="m 5675.44,2949.5 c -75,0 -137,-61 -137,-137 v -987 c 0,-75 61,-137 137,-137 h 987 c 75,0 137,61 137,137 v 987 c 0,75 -61,137 -137,137 z m 987,-1425 h -987 c -166,0 -301,135 -301,301 v 987 c 0,166 135,301 301,301 h 987 c 166,0 301,-135 301,-301 v -987 c 0,-166 -135,-301 -301,-301"
         style="fill:#f9a60d;fill-opacity:1;fill-rule:nonzero;stroke:none"
         transform="matrix(0.13333333,0,0,-0.13333333,0,1056)"
         clip-path="url(#clipPath8)" />
      <path
         id="path9"
         d="m 3007.24,2620.63 -121.87,-273.38 55.44,-341.75 c 12,-75 -39,-145 -113,-157 l -975,-158 c -36,-6 -72,3 -102,24 -30,21 -49,53 -55,89 l -158,974 c -12,75 39,145 113,157 l 975,158 c 7,1 15,2 22,2 29,0 57,-9 80,-26 30,-21 49,-53 55,-89 l 54.69,-337.15 121.87,273.38 -14.56,89.77 c -13,79 -56,149 -121,196 -65,47 -145,66 -224,53 l -975,-158 c -164,-26 -275,-181 -249,-345 l 158,-974 c 13,-79 56,-149 121,-196 51,-37 112,-57 175,-57 17,0 33,2 50,4 l 974,158 c 164,26 275,181 249,345 l -95.57,589.13"
         style="fill:#ed1c24;fill-opacity:1;fill-rule:nonzero;stroke:none"
         transform="matrix(0.13333333,0,0,-0.13333333,0,1056)" />
      <path
         id="path10"
         d="m 4181.04,2157.83 127.26,285.84 -46.49,341.83 c -5,36 5,72 27,101 22,29 54,48 90,53 l 978,133 c 6,1 12,1 18,1 37.1,0 71.71,-15.38 96.94,-40.61 41.34,38.07 93.34,64.67 150.95,74.89 -17.73,25.42 -39.46,48.25 -64.89,67.72 -64,49 -143,70 -223,59 l -978,-133 c -80,-11 -150,-52 -199,-116 -49,-64 -70,-143 -59,-223 l 82.23,-604.67"
         style="fill:#326abc;fill-opacity:1;fill-rule:nonzero;stroke:none"
         transform="matrix(0.13333333,0,0,-0.13333333,0,1056)" />
      <path
         id="path11"
         d="m 5806.81,1998.5 -129.19,950 h -2.18 c -75,0 -137,-61 -137,-137 v -59.17 l 105.37,-774.83 c 5,-36 -5,-72 -27,-101 -22,-29 -54,-48 -90,-53 l -978,-133 c -75,-10 -144,42 -154,117 l -44.54,327.52 -127.25,-285.84 8.79,-64.68 c 21,-150 150,-260 298,-260 13,0 27,1 41,3 l 978,132 c 165,23 280,175 258,339"
         style="fill:#326abc;fill-opacity:1;fill-rule:nonzero;stroke:none"
         transform="matrix(0.13333333,0,0,-0.13333333,0,1056)" />
    </g>
  </g>
</svg>
